<!-- Generated by IcoMoon.io -->
<svg version="1.1" xmlns="http://www.w3.org/2000/svg" width="20" height="32" viewBox="0 0 20 32">
<title>smartphone</title>
<path fill="#757575" d="M17 0h-14c-1.654 0-3 1.346-3 3v26c0 1.654 1.346 3 3 3h14c1.654 0 3-1.346 3-3v-26c0-1.654-1.346-3-3-3zM3 2h14c0.552 0 1 0.448 1 1v21h-16v-21c0-0.552 0.448-1 1-1zM17 30h-14c-0.552 0-1-0.448-1-1v-3h16v3c0 0.552-0.448 1-1 1z"></path>
<path fill="#000" d="M18 24v2h2v-2h-2zM2 24h-2v2h2v-2zM2 26v-2h-2v2h2zM18 26h2v-2h-2v2zM17-2h-14v4h14v-4zM3-2c-2.759 0-5 2.241-5 5h4c0-0.55 0.45-1 1-1v-4zM-2 3v26h4v-26h-4zM-2 29c0 2.759 2.241 5 5 5v-4c-0.55 0-1-0.45-1-1h-4zM3 34h14v-4h-14v4zM17 34c2.759 0 5-2.241 5-5h-4c0 0.55-0.45 1-1 1v4zM22 29v-26h-4v26h4zM22 3c0-2.759-2.241-5-5-5v4c0.55 0 1 0.45 1 1h4zM3 4h14v-4h-14v4zM17 4c-0.553 0-1-0.447-1-1h4c0-1.656-1.344-3-3-3v4zM16 3v21h4v-21h-4zM18 22h-16v4h16v-4zM4 24v-21h-4v21h4zM4 3c0 0.553-0.447 1-1 1v-4c-1.656 0-3 1.344-3 3h4zM17 28h-14v4h14v-4zM3 28c0.553 0 1 0.447 1 1h-4c0 1.656 1.344 3 3 3v-4zM4 29v-3h-4v3h4zM2 28h16v-4h-16v4zM16 26v3h4v-3h-4zM16 29c0-0.553 0.447-1 1-1v4c1.656 0 3-1.344 3-3h-4z"></path>
<path fill="#757575" d="M4.707 27.478c0.391 0.365 0.391 0.956 0 1.321s-1.024 0.365-1.414 0c-0.391-0.365-0.391-0.956 0-1.321s1.024-0.365 1.414 0z"></path>
<path fill="#000" d="M3.342 28.94c-0.456-0.426-0.456-1.177 0-1.603l2.73 2.923c1.237-1.155 1.237-3.089 0-4.244l-2.73 2.923zM3.342 27.337c0.203-0.19 0.447-0.265 0.658-0.265s0.455 0.075 0.658 0.265l-2.73 2.923c1.159 1.082 2.985 1.082 4.144 0l-2.73-2.923zM4.658 27.337c0.456 0.426 0.456 1.177 0 1.603l-2.73-2.923c-1.237 1.155-1.237 3.089 0 4.244l2.73-2.923zM4.658 28.94c-0.203 0.19-0.447 0.265-0.658 0.265s-0.455-0.075-0.658-0.265l2.73-2.923c-1.159-1.082-2.985-1.082-4.144 0l2.73 2.923z"></path>
</svg>
